<?xml version="1.0" encoding="UTF-8"?>
<svg id="Layer_1" data-name="Layer 1" xmlns="http://www.w3.org/2000/svg" viewBox="0 0 211.72 147.31">
  <path id="Tracé_56" data-name="Tracé 56" d="M54.05,89.72c.69,1.73-1.88,1.99-3.58,2.37-4.76,1.06-10.09.46-14.93,1.38-1.17.68.5,2.32,1.09,3.01,3.17,3.74,14.31,7.03,19.33,7.73,9.24,1.29,18.74,1.19,27.93,2.08,3.38.33,6.95,1.56,10.09,1.96,3.64.46,7.67.04,11.32.79-.44.35-.41.98-.89,1.29-1.39.91-12.53-.94-15.2-1.06-6.16-.27-12.42.53-18.53.29-.42-.02-.86-.77-1.56-.79-.14,0-.1,1.34-2.28.85-8.13-1.85-17.48-.03-26.24,1.06-1.78.22-9.21-.9-9.78-.38.48,2.77-.2,5.27.14,8.15.74,6.41,3.64,13.14,4.62,19.45-1.32,1.25-7.59-4.87-8.72-6.01-2.82-2.86-6.32-6.91-8.98-10.04-4.19-4.93-7.46-9.22-8.15-15.83-1.17-1.69-2.71-1.05-4.4-1.36-.93-.17-1.72-.77-2.26-.89-.26-.06-.02,1.43-1.03,1-3.12-1.33-.05-7.4,1.68-9.04,2.89.2,5.46-.57,8.37-.52,1.58.03,4.68,1.34,4.31-.74-.17-.97-4.1-3.18-.43-4.49,3.76.59,7.65-.05,11.42.25,2.4.19,5.06,1.22,7.5,1.31,2.91.1,18.53-2.48,19.2-1.82"/>
  <path id="Tracé_57" data-name="Tracé 57" d="M134.35,27.48c-2.37,2.38-6.53.99-9.22.98-7.98-.02-15.89.95-23.81,0l-27.21,2.78c-2.36,1.95-1.14,4.16-.99,6.54.23,3.68.58,7.62,2.18,11.92,1.1,2.96,6.19,8.68.93,9.41.46.62,1.95,4.63,1.58,5.01-1.28-.75-2.55,0-3.46-.05-2.31-.15-5.95-4.95-7.43-5.91-1.27-.83-2.58-.65-4.19-2.04-2.46-2.12-7.14-9.06-9.03-12-1.32-2.06-6.56-10.73-6.94-12.47-.42-1.89-.43-4.16.94-5.65-2.39-.35-4.76-.87-7.08-1.56-1.09-.28-1.95-1.2-3.17-.98-.29.05-.37,1.8-1.36,1.03-.38-.3-1.43-3.33-1.32-4.09.09-.62,2.44-4.29,2.91-4.68,3.79-3.16,12.61-1.11,17.21-.82,4.54.29,6.26-.41,11.3,1.31,9.44,3.23,18.7,7.28,28.86,8.71l39.3,2.58Z"/>
  <path id="Tracé_58" data-name="Tracé 58" d="M177.73,15.36c-.67.14-1.27.51-1.69,1.04-2.65,2.74-6.28,5.21-8.84,8.27-2.49,2.99-3.26,7.06-5.71,10.11-.18.97,4.01,8.82,4.35,10.65.22,1.17-.74,2.31.34,3.78,1.04,1.41,7.42,2.76,9.37,3.14,7.63,1.47,16.86,2.29,24.71,3.15,3.28.36,6.91.16,10.01.53.78.09,1.63.39.78,1h-41.21c2.64,3.83,8.25,4.65,11.1,8.28.31.39,1.07.86.25,1.27-4.34-1-8.77-1.65-12.93-3.28-3.89-1.52-7.57-4.92-10.57-6.02-3.39-1.25-8.33-.87-12.05-2.11-1.81-.6-2.47-1.53-3.68-2.03-1.64-.68-6.81-2.28-8.3-2.15-.37.03-.25.91-.34.97-.95.66-2.55-2.23-2.47-3.12.04-.52,2.62-4.29,3.04-4.61,4.4-3.24,15.88,3.96,11.08-8-1.52-3.79-3.95-4,.3-8.3,3.68-3.73,16.23-11.15,21.39-12.31.83-.19,1.64.29,2.25.15.88-.21,10.29-3.71,8.82-.41"/>
</svg>