<?xml version="1.0" encoding="UTF-8"?>
<svg id="Layer_1" data-name="Layer 1" xmlns="http://www.w3.org/2000/svg" viewBox="0 0 171.88 83.25">
  <path id="Tracé_51" data-name="Tracé 51" d="M81.96,70.1c-.08,3.07-3.38,11.8-6.44,12.39-2.26.43-12.06.35-14.56.07-1.21-.14-.62-1.39-1.07-1.18-.7.34-.69.99-2.21,1.16-5.11.58-11.28-.49-16.52-.03-.78-.77,6.58-12.35,6.7-14.65-6.97,5.26-15,9.58-23.81,10.64-5.68.68-10.73.64-15.51-2.83-5.23-3.81-6.35-10.6-7.67-16.5-.35-1.58-1.74-2.18-.78-4.27,1.81-3.95,5.79-1,6.94-1.4.9-.32,15.54-9.51,16.22-10.18,2.53-2.53-.31-5.01,4.64-6.64.72-.24,1.62.06,2.1-.17,1.26-.58,3.77-3.42,5.01-4.45-6.02.19-8.88-1.8-7.82-8.17.85-.8,9.18,6.36,10.79,6.08.63-.11,3.68-2.64,4.58-3.28C73.29,4.73,116.45-11.18,152.55,10.46c11.59,6.95,10.93,11.76,16.38,22.37.93,1.82,2.88,3.12,3.01,5.13-3.23-.2-1.91,2.43-2.38,4.65-1.29,6.18-6.49,13.18-7.1,16.51-1.23,6.73,1.14,16.26-.58,23.37h-19l-.29-6.77c-1.49.03-5.15,6.77-5.58,6.77h-18.72c.7-2.9.64-7,1.72-9.7.25-.62,2.1-1.24,1.63-2.7h-39.68Z"/>
</svg>