<?xml version="1.0" encoding="UTF-8"?>
<svg id="Layer_1" data-name="Layer 1" xmlns="http://www.w3.org/2000/svg" viewBox="0 0 104.59 84.33">
  <path id="Tracé_55" data-name="Tracé 55" d="M80.24,82.77c.15-1.97-.13-5.34,2.52-5.05.28-.83-1.02-.25-1.04-.77-.03-.9,1.01-1.98,1.24-2.74.36-1.19.32-1.26.76-2.44,1.71-4.64.18-5.76,6.61-5.14l-4.03-.5v-1.51l4.03-.5h-3.02c-.45-1.68,1.31-.77,1.51-1.01.05-.5.05-1.01,0-1.51-.11-.11-1.17.21-1.42-.06-.16-.17-.14-1.42-.58-2.23-.74-1.34-5.15-5.32-6.45-6.13-1.17-.73-2.39-.3-2.98-1.67-4.36,1-8.27,3.06-12.76,3.53l-.51.51h-1.51s-.07-.5-.54-.03c-1.18,1.21-12.22-.6-14.2-1.12-1.4-.36-2.13-1.11-3.41-1.37l.5,4.03-1.27-.49c-1.15,1.78,1.67.1,1.27,2.01-.92.14-7.31,1.22-5.07-1.22.59-.64-.44,1.09-.56.13-.55-.11-.28-.77-.42-.92-.23-.24.55-2.58-.75-2.02-.34.15-5.61,4.44-5.84,4.75-1.14,1.54.54,9.31,2.07,10.6,1.47,1.24,2.87.7,4.52.27-.02,1.74-.46,2.32,1.51,2.01.23-.85-.98-.22-1.05-.8-.17-1.42.87-5.41,1-7.06.19-2.43-1.88-3.52,3.07-3.23-.44-1.45-4.04.69-3.52-1.5l5.03-.51-1.01,2.51h1.51c-.92,2.29.66,7.12-2.01,7.57v.49c.35-.04.9-.09,1.02.33.23.87-1.02,12.4-1.53,12.79-2.45-.82-5.1-.82-7.55,0l1.51-5.54c-.86.08-1.72,0-2.55-.23-4.06-1.37-7.69-14.22-9.02-18.2.9-2.07,9.51-10.88,9.57-12.07,0-.15-2.11-1.46-2.39-1.91-.82-1.29-3.42-4.21-3.53-4.49s.49-.85-.07-1.68c-.52-.77-2.07-1.25-2.32-1.73-.21-.38.27-1.13.1-1.64-.51-1.5-1.88-3.25-2.24-4.32-.49-1.43-.3-4.85-1.75-5.5-.63-.28-2.2-.84-2.42-.66-.06.05-.65-.49-.89-.36-.17.09.07.87-.84.9-2.6.09-2.3-.05-2.3-.05-1.19-.04-6.08-.58-6.81-.31-.83.31-1.06,1.87-2.39,2.45C-.09,30.56-.43,19.21,1.08,17.96c.38-.32,5.17-.18,5.53.32,1.32-.02,2.62-.4,3.74-1.11.64-.39,4.82-3.19,5.03-3.41.92-.99.04-3.66,3.36-3.07l-2.51-4.79c.01-.49,2.69-1.61,3.27-1.81.58-.14,1.18-.12,1.74.05.37-.67-.07-3.28,1.78-4.04,1.14-.47.91,2.05,1.77,2.76,1.46,1.21,6.22.84,8.05,3.05,1.04,1.25-.37,1.93,2.02,1.47,4.03,3.88,7.57,8.25,11.42,12.31.81.85,3.71,3.04,3.98,3.6.59,1.22-2.01,2.66.48,4.02.43.15.13-1.08.48-1.01,1.35.27,2.95,1.13,4.7,1.38,2.87.4,5.88.82,8.68.14l.25,3.52c1.58-.72.04-3.29.25-3.52.33-.36,4.33-.42,4.5-.58.19-.18-.23-1.14.36-1.46,1.32-.73,7.17-2.08,8.76-1.49l-.51-1c1.79.93,7.73-.83,8.57-.26.28.19.35.95.65,1.12,5.14,2.91,7.23,4.88,10.95,9.98,4.18,5.72,5.03,15.08,4.03,21.93-4.98-3.62-.98-8.16-.96-11.84,0-1.31-1.78-7.36-2.9-7.74-1.03-.35-2.57.04-3.7-.08.42,1.43,3.65-.56,3.53,1.25-.18,2.75-2.32,9.26-3.69,11.7-.29.52-1.44.12-1.28,1.79.35,3.64,4.22,6.83,7.52,7.74-2.1,7.53-3.56,15.61-2.56,23.39h-7.05c.14-3.42.53-6.82,1.17-10.17.33-1.78,2.38-8.01,2.33-8.75-.05-.84-.71-1.23-1.23-1.73-2.85,2.02-1.49,8.13-5.29,7.56l2.02.76c-1.9,4.08-2.17,8.46-2.53,12.85h-7.56Z"/>
</svg>