<?xml version="1.0" encoding="UTF-8"?>
<svg id="Layer_1" data-name="Layer 1" xmlns="http://www.w3.org/2000/svg" viewBox="0 0 118.05 124.16">
  <defs>
    <style>
      .cls-1 {
        fill: #060706;
      }
    </style>
  </defs>
  <path id="Tracé_53" data-name="Tracé 53" class="cls-1" d="M80.9,111.86c-.56-1.05-1.01-2.16-1.34-3.31-1.04-5.95,5.93-9.38,5.85-10.98-.27-5.86-11.58-11.08-12.17-17.19l-.82-.42c-5.81,2.26-12.24,2.54-18.34,1.92-1.14.29-.29,4.97-.65,6.3-.67,2.53-7.44,9.74-8.39,12.7-1.31,4.06.74,7.4-4.63,10.74,6.18-.51,5.9,4.25.53,5.76-14.47,4.06-14.06-4.94-12.12-16.2,1.24-7.21,5.82-13.94,3.46-21.31-3.53,2.37-.94,7.92-1.75,11.14-.57,2.26-8.17,10.6-8.81,13.07-.4,1.56.24,3.13-.02,4.69-.38,2.34-3.29,5.69-5.66,6.3,1.03,1.41,3.87.12,5.59,1.08,2.34,1.31-1.24,4.69-2.81,5.31-16.32,6.47-15.73-12.36-14.99-23,1.32-18.89,9.2-36.6,16.72-53.66-.04-.32-5.03-2.03-5.97-2.07-2.14-.1-2.76,1.68-4.57,1.8-2.07.13-3.44-2.5-4.77-2.81-1.27-.3-2.6,1.11-2.95.9-.76-.48-2-6.99-1.94-8.47.2-4.33,4.07-5.78,4.44-8.23.38-2.55-2.1-4.02-2.23-6.24-.05-.78,2.01-5.48,2.55-6.23,1.86-2.6,4.31-2.38,5.95-4.4,1.46-1.8,1.12-4.55,2.65-6.32,7.31-8.45,16.05,6.36,21.18,9.45,2.07,1.25,5.42,1.53,7.82,3.11,2.21,1.45,4.94,3.59,7.01,5.09,4.65,3.36,5.75,4.53,8.4,9.74.97,1.9.66,4.53,2.65,5.58,2.59,1.37,16.27,1.33,19.54.88,7.15-.98,13.99-5.12,21.38-1.68,8.04,3.74,9.42,15.82,7.72,23.53-.45,2.04-5.52,14.93-4.93,15.49.08.08,1.3-.03,1.94.56,8.75,8.07,11.04,20.3,10.14,31.79-5.02-.2-33.5,6.56-35.69,5.61"/>
</svg>