<?xml version="1.0" encoding="UTF-8"?>
<svg id="Layer_1" data-name="Layer 1" xmlns="http://www.w3.org/2000/svg" viewBox="0 0 85.21 84.86">
  <path id="Tracé_52" data-name="Tracé 52" d="M25.52,10.82c-4.48,5.01-15.51,3.82-13.32,13.62.72-.18.72-1.27,1.3-1.96.83-.98,2.42-2.21,3.7-2.39.77-.11.66,0,.67.66.02,2.74-2.46,4.42-4.79,5.21,4.86,3.08,10.92,5.47,16.71,5.89,1.43.1,7.67-.4,8.05-.25.71.29,5.12,4.92,6.32,5.87,5.19,4.11,11.68,8.06,17.92,10.33,1.68.61,6.68,1.6,7.48,2.08.86.51,2.44,4.14,2.58,5.24.25,1.96-.98,5.03-.63,5.81,1.4,3.1,6.96,3.52,7.97,5.11.7,1.11,4.55,10.14,4.77,11.31.69,3.65-.22,6.18-4.24,6.2.3-1.76,1.37-3.53,1.27-5.37-.09-1.78-1.9-7.38-3.44-8.33-.64-.4-1.38-.56-1.32.45.28,5.1,6.31,14.24-3.47,13.69-.03-1.35,1.37-2.13,1.65-3.35.57-3.1-.04-6.3-1.72-8.96-2.22-3.31-6.74-3.59-10.15-5.49-2.97-1.66-5.83-5.53-7.46-6.45-2.02-1.14-5.11-.36-7.19-.61-4.68-.57-12.39-4.68-13.82-9.46h-.42c-.27,1.86-3.52,1.21-4.78,2.38,2.01,2.62,4.57,4.74,6.45,7.46.39.56.5,1.41.93,2.11.34.55,1.33,1.03,1.54,1.52.4.94-.83,2.78-.67,3.9-3.62-2.15-5.06-6.54-7.65-9.95-1.53-1.94-3.18-3.79-4.92-5.53-.18-1,3.81-2.97,4.32-4.07l-9.56-1.31c-.6.6,2.72,9.51,3.25,9.55.17.01,2.35-1.57,3.23-.82.53,1.34.97,2.7,1.34,4.09.11.72,0,.71-.66.66-1.39-.11-2.77-.34-4.13-.68-.25-.12-1.03-1.44-1.46-1.76-.52-.38-1.31-.32-1.77-.63-1.16-.81-3.22-11.69-3.73-13.88l12.6.22c-2.1-1.14-14.45-8.94-15.68-8.71-2.09.7-9.31,5.43-10.96,4.95-.55-.16-2.08-2.21-2-2.71.08-.46,2.42-2.42,2.98-3.12,1.07-1.32,5.58-7.1,5.65-8.26.11-1.93-.61-2.87.14-5.51C10.86,10.95,29.1,13.29,25.24.97c2.96,2.56,2.81,7.02.28,9.85"/>
</svg>